<svg xmlns="http://www.w3.org/2000/svg" viewBox="0 0 428.857 76.663"><defs><style>.cls-1{fill:#fafafa;}</style></defs><title>Asset 1</title><g id="Layer_2" data-name="Layer 2"><g id="Layer_1-2" data-name="Layer 1"><path class="cls-1" d="M181.7,51.694H163.4l-2.579,7.065h-9.585l15.85-40.978h10.937l15.788,40.978h-9.522Zm-15.974-7.557h13.578l-6.759-18.8Z"/><path class="cls-1" d="M215.371,17.105c8.478,0,13.822,4.117,16.955,8.97l-7.249,3.932a11.628,11.628,0,0,0-9.706-5.161c-7.434,0-12.842,5.714-12.842,13.454s5.408,13.455,12.842,13.455a13.845,13.845,0,0,0,8.846-3.133V43.646H213.281v-7.5h19.537V51.817a22.743,22.743,0,0,1-17.447,7.741c-11.982,0-21.811-8.356-21.811-21.258C193.56,25.338,203.389,17.105,215.371,17.105Z"/><path class="cls-1" d="M254.872,44.076h-6.389V58.759h-8.725V17.781h19.168c8.54,0,13.763,5.591,13.763,13.209,0,7.249-4.547,11.119-8.97,12.164l9.216,15.6H262.92Zm2.765-18.8h-9.154v11.3h9.154c3.5,0,6.143-2.213,6.143-5.652S261.138,25.277,257.637,25.277Z"/><path class="cls-1" d="M279.262,17.781h29v7.5H287.985v8.907h19.844v7.5H287.985V51.2h20.274v7.557h-29Z"/><path class="cls-1" d="M315.078,17.781h29v7.5H323.8v8.907h19.845v7.5H323.8V51.2h20.275v7.557h-29Z"/><path class="cls-1" d="M370.308,17.105c12.41,0,21.442,8.848,21.442,21.195s-9.032,21.2-21.442,21.2c-12.349,0-21.38-8.847-21.38-21.2S357.959,17.105,370.308,17.105Zm0,7.741c-7.556,0-12.41,5.775-12.41,13.454,0,7.62,4.854,13.455,12.41,13.455S382.78,45.92,382.78,38.3C382.78,30.621,377.865,24.846,370.308,24.846Z"/><path class="cls-1" d="M399.858,46.348a17.966,17.966,0,0,0,13.025,5.53c4.793,0,7.127-2.272,7.127-4.608,0-3.071-3.564-4.116-8.294-5.222-6.7-1.535-15.3-3.379-15.3-12.532,0-6.82,5.9-12.349,15.543-12.349,6.514,0,11.919,1.966,15.974,5.713l-4.852,6.39a17.484,17.484,0,0,0-11.735-4.485c-3.932,0-6.021,1.72-6.021,4.178,0,2.765,3.44,3.624,8.171,4.731,6.757,1.535,15.359,3.563,15.359,12.654,0,7.5-5.346,13.148-16.4,13.148-7.864,0-13.515-2.641-17.324-6.512Z"/><path class="cls-1" d="M13.947,22.432,28.215,14.35S12.574,5.837,10.327,4.5C6.781,2.38,0,5.6.189,10.033.378,17.285,0,38.887,0,38.887L68.577,76.663l15.529-8.8L36.076,41.409l3.56-2.017L87.81,65.929l7.765-4.4,7.764-4.4L55.165,30.6l3.561-2.017,48.03,26.458,15.529-8.8L65.412,14.912,33.381,33.056Z"/><path class="cls-1" d="M125.9,44.278s2.089-33.161,2.089-35.5S124.2,2.4,118.817,4.508L97.089,16.951S72.212,3.215,69.277,1.63,61-.883,56.857,1.231C52.115,3.918,19.634,22.356,19.634,22.356L32.863,29.63,65.587,11.054Z"/></g></g></svg>